<svg width="954" height="971" viewBox="0 0 954 971" fill="none" xmlns="http://www.w3.org/2000/svg">
<path d="M411.25 332H541.5L49.8078 909.5L411.25 332Z" fill="#40B073"/>
<path d="M0 476.5L219.5 0L281 332L0 476.5Z" fill="#40B073"/>
<path d="M411.25 332H541.5L49.8078 909.5L411.25 332Z" fill="#40B073"/>
<path d="M0 476.5L219.5 0L281 332L0 476.5Z" fill="#40B073"/>
<path d="M411.25 332H541.5L49.8078 909.5L411.25 332Z" fill="#40B073"/>
<path d="M0 476.5L219.5 0L281 332L0 476.5Z" fill="#40B073"/>
<path d="M411.25 332H541.5L49.8078 909.5L411.25 332Z" fill="#55C186"/>
<path d="M0 476.5L219.5 0L281 332L0 476.5Z" fill="#55C186"/>
<path d="M0 968L206.5 476.5L281 332L219.5 0H450.5L281 332H411.25L49.8078 909.5L0 968Z" fill="#40B073"/>
<path d="M206.5 476.5H0L281 332L206.5 476.5Z" fill="#40B073"/>
<path d="M206.5 476.5H0L281 332L206.5 476.5Z" fill="#297149"/>
<path d="M598.5 227L858 555.5L954 356.821L687 2.5L598.5 227Z" fill="#fefefe"/>
<path d="M905 970.5L527.5 508.5L378 678.5L611.5 970.5H905Z" fill="#fefefe"/>
<path d="M722 383.5H637.5L527.103 509L614.5 615H828.5L858 555.5L722 383.5Z" fill="#f0f0f0"/>
<path d="M687 2.5L598.5 227H411L523.5 2.5H687Z" fill="#f0f0f0"/>
</svg>
