<svg width="954" height="971" viewBox="0 0 954 971" fill="none" xmlns="http://www.w3.org/2000/svg">
<path d="M411.25 332.5H541.5L49.8078 910L411.25 332.5Z" fill="#40B073"/>
<path d="M0 477L219.5 0.5L281 332.5L0 477Z" fill="#40B073"/>
<path d="M411.25 332.5H541.5L49.8078 910L411.25 332.5Z" fill="#40B073"/>
<path d="M0 477L219.5 0.5L281 332.5L0 477Z" fill="#40B073"/>
<path d="M411.25 332.5H541.5L49.8078 910L411.25 332.5Z" fill="#40B073"/>
<path d="M0 477L219.5 0.5L281 332.5L0 477Z" fill="#40B073"/>
<path d="M411.25 332.5H541.5L49.8078 910L411.25 332.5Z" fill="#55C186"/>
<path d="M0 477L219.5 0.5L281 332.5L0 477Z" fill="#55C186"/>
<path d="M0 968.5L206.5 477L281 332.5L219.5 0.5H450.5L281 332.5H411.25L49.8078 910L0 968.5Z" fill="#40B073"/>
<path d="M206.5 477H0L281 332.5L206.5 477Z" fill="#40B073"/>
<path d="M206.5 477H0L281 332.5L206.5 477Z" fill="#297149"/>
<path d="M598.5 227.5L858 556L954 357.321L687 3L598.5 227.5Z" fill="#3F3F41"/>
<path d="M905 971L527.5 509L378 679L611.5 971H905Z" fill="#3F3F41"/>
<path d="M722 384H637.5L527.103 509.5L614.5 615.5H828.5L858 556L722 384Z" fill="#57545B"/>
<path d="M687 3L598.5 227.5H411L523.5 3H687Z" fill="#57545B"/>
</svg>
