<svg width="954" height="1165" viewBox="0 0 954 1165" fill="none" xmlns="http://www.w3.org/2000/svg">
<path d="M411.25 332H541.5L49.8078 909.5L411.25 332Z" fill="#40B073"/>
<path d="M0 476.5L219.5 0L281 332L0 476.5Z" fill="#40B073"/>
<path d="M411.25 332H541.5L49.8078 909.5L411.25 332Z" fill="#40B073"/>
<path d="M0 476.5L219.5 0L281 332L0 476.5Z" fill="#40B073"/>
<path d="M411.25 332H541.5L49.8078 909.5L411.25 332Z" fill="#40B073"/>
<path d="M0 476.5L219.5 0L281 332L0 476.5Z" fill="#40B073"/>
<path d="M411.25 332H541.5L49.8078 909.5L411.25 332Z" fill="#55C186"/>
<path d="M0 476.5L219.5 0L281 332L0 476.5Z" fill="#55C186"/>
<path d="M0 968L206.5 476.5L281 332L219.5 0H450.5L281 332H411.25L49.8078 909.5L0 968Z" fill="#40B073"/>
<path d="M206.5 476.5H0L281 332L206.5 476.5Z" fill="#40B073"/>
<path d="M206.5 476.5H0L281 332L206.5 476.5Z" fill="#297149"/>
<path d="M598.5 227L858 555.5L954 356.821L687 2.5L598.5 227Z" fill="#fefefe"/>
<path d="M905 970.5L527.5 508.5L378 678.5L611.5 970.5H905Z" fill="#fefefe"/>
<path d="M722 383.5H637.5L527.103 509L614.5 615H828.5L858 555.5L722 383.5Z" fill="#f0f0f0"/>
<path d="M687 2.5L598.5 227H411L523.5 2.5H687Z" fill="#f0f0f0"/>
<path d="M66.743 1116.5V1162H28.0096V1025.27H43.4096C47.143 1025.27 52.7041 1025.11 60.093 1024.8C67.4819 1024.41 73.5874 1024.22 78.4096 1024.22C95.2096 1024.22 107.732 1027.91 115.976 1035.3C124.299 1042.69 128.46 1054.01 128.46 1069.25C128.46 1078.27 126.476 1086.28 122.51 1093.28C118.621 1100.28 113.449 1105.84 106.993 1109.97C110.493 1110.82 113.487 1112.81 115.976 1115.92C118.543 1119.03 120.526 1122.72 121.926 1127C123.326 1131.2 124.532 1135.48 125.543 1139.83C126.632 1144.11 127.837 1148.35 129.16 1152.55C130.56 1156.75 132.076 1159.9 133.71 1162H90.6596C89.8041 1160.91 89.143 1157.88 88.6763 1152.9C88.2096 1147.84 87.5485 1141.82 86.693 1134.82C85.9152 1127.74 84.7874 1121.83 83.3096 1117.08C83.1541 1117.08 82.9596 1117.08 82.7263 1117.08C81.2485 1117.08 79.6541 1117.08 77.943 1117.08C76.3096 1117.01 74.8707 1116.93 73.6263 1116.85C72.3819 1116.77 71.0596 1116.69 69.6596 1116.62C68.3374 1116.54 67.3652 1116.5 66.743 1116.5ZM66.743 1094.8H70.4763C72.4207 1094.8 74.0541 1094.72 75.3763 1094.57C76.6985 1094.41 78.1374 1094.14 79.693 1093.75C81.3263 1093.28 82.6485 1092.58 83.6596 1091.65C84.7485 1090.72 85.7596 1089.51 86.693 1088.03C87.6263 1086.56 88.3263 1084.65 88.793 1082.32C89.2596 1079.98 89.493 1077.26 89.493 1074.15V1064.93C89.493 1058.17 87.7041 1053.46 84.1263 1050.82C80.6263 1048.09 75.5707 1046.73 68.9596 1046.73H66.743V1094.8ZM208.236 1162L202.986 1140.18H169.853L165.419 1162H131.119L166.703 1034.72L163.903 1025.27H212.086L251.053 1162H208.236ZM184.903 1065.4L174.636 1116.38H197.269L184.903 1065.4ZM292.755 1162H255.655V1036.23L249.938 1025.27H292.871L314.338 1069.6L334.871 1113.82L329.155 1061.9V1025.27H366.371V1162H330.788L303.021 1107.98L285.871 1074.15L292.755 1118.95V1162ZM428.203 1142.87C434.114 1142.87 438.625 1139.21 441.736 1131.9C444.925 1124.59 446.519 1112.53 446.519 1095.73V1083.95C446.519 1071.66 445.042 1062.17 442.086 1055.48C439.131 1048.79 434.931 1045.45 429.486 1045.45H420.736V1142.87H428.203ZM431.819 1162.82C429.019 1162.82 424.664 1162.66 418.753 1162.35C412.919 1162.12 406.892 1162 400.669 1162H382.119V1025.27H400.669C405.881 1025.19 411.558 1024.99 417.703 1024.68C423.847 1024.37 428.669 1024.22 432.169 1024.22C452.003 1024.22 466.197 1029.78 474.753 1040.9C483.386 1052.02 487.703 1068.24 487.703 1089.55C487.703 1096.78 487.197 1103.67 486.186 1110.2C485.253 1116.73 483.464 1123.31 480.819 1129.92C478.175 1136.45 474.831 1142.09 470.786 1146.83C466.742 1151.58 461.375 1155.43 454.686 1158.38C447.997 1161.34 440.375 1162.82 431.819 1162.82ZM538.222 1109.15C538.222 1122.06 539.194 1131.04 541.139 1136.1C543.161 1141.16 546.661 1143.68 551.639 1143.68C555.294 1143.68 558.055 1142.79 559.922 1141C561.789 1139.13 563.189 1135.36 564.122 1129.68C565.133 1123.93 565.639 1115.33 565.639 1103.9V1075.78C565.639 1064.66 564.55 1056.38 562.372 1050.93C560.194 1045.49 556.617 1042.77 551.639 1042.77C546.661 1042.77 543.161 1045.45 541.139 1050.82C539.194 1056.11 538.222 1065.79 538.222 1079.87V1109.15ZM549.189 1164.45C542.733 1164.45 536.9 1163.87 531.689 1162.7C526.555 1161.53 522.122 1159.9 518.389 1157.8C514.655 1155.7 511.389 1153.02 508.589 1149.75C505.867 1146.48 503.65 1142.98 501.939 1139.25C500.305 1135.52 498.983 1131.16 497.972 1126.18C496.961 1121.13 496.261 1116.11 495.872 1111.13C495.483 1106.08 495.289 1100.4 495.289 1094.1C495.289 1084.77 495.755 1076.64 496.689 1069.72C497.7 1062.79 499.528 1056.3 502.172 1050.23C504.817 1044.09 508.317 1039.11 512.672 1035.3C517.105 1031.49 522.783 1028.49 529.705 1026.32C536.705 1024.14 544.95 1023.05 554.439 1023.05C560.972 1023.05 566.844 1023.67 572.055 1024.92C577.267 1026.08 581.739 1027.72 585.472 1029.82C589.205 1031.92 592.433 1034.64 595.155 1037.98C597.955 1041.33 600.172 1044.91 601.805 1048.72C603.517 1052.45 604.878 1056.84 605.889 1061.9C606.9 1066.96 607.6 1071.97 607.989 1076.95C608.378 1081.93 608.572 1087.57 608.572 1093.87C608.572 1103.2 608.067 1111.33 607.055 1118.25C606.044 1125.17 604.217 1131.67 601.572 1137.73C598.928 1143.72 595.389 1148.62 590.955 1152.43C586.522 1156.17 580.805 1159.12 573.805 1161.3C566.883 1163.4 558.678 1164.45 549.189 1164.45ZM650.327 1162H615.21L626.06 1025.27H680.777L691.044 1071.12L695.71 1094.33L700.144 1071.23L709.244 1025.27H758.01L768.044 1162H731.76L725.81 1081.62L724.41 1051.98L706.56 1148.35H676.11L654.644 1051.98L653.944 1081.62L650.327 1162ZM778.612 1162V1025.27H818.395V1162H778.612ZM857.067 1162H818.8L856.95 1094.1L820.55 1025.27H866.517L876.783 1051.05L881.917 1065.87L887.517 1051.28L898.6 1025.27H936.75L900.467 1086.98L938.383 1162H893.117L880.517 1130.5L876.083 1116.27L870.367 1130.5L857.067 1162Z" fill="#fff"/>
</svg>
